<svg width="270" height="72" viewBox="0 0 270 72" fill="none" xmlns="http://www.w3.org/2000/svg">
<path d="M135.163 15.3214V56.7816C135.163 57.1006 134.924 57.4195 134.525 57.4195H130.18C128.206 57.4195 126.313 56.383 125.196 54.7286L105.622 24.4905L106.26 39.5796V56.8813C106.26 57.2002 106.021 57.5191 105.622 57.5191H99.9416C99.6226 57.5191 99.3037 57.28 99.3037 56.8813V15.3414C99.3037 15.0225 99.5429 14.7035 99.9416 14.7035H104.207C106.181 14.7035 108.074 15.7201 109.19 17.3945L128.764 47.5528L128.127 32.4636V15.3214C128.127 15.0025 128.366 14.6836 128.764 14.6836H134.445C134.924 14.6836 135.163 14.9228 135.163 15.3214Z" fill="black"/>
<path d="M193.425 57.3398H187.425C187.027 57.3398 186.708 56.9411 186.867 56.5424L202.813 15.2417C202.973 14.9228 203.292 14.6836 203.611 14.6836H211.185C211.584 14.6836 211.903 14.9228 211.982 15.2417L228.008 56.5424C228.168 56.9411 227.849 57.3398 227.45 57.3398H221.451C221.211 57.3398 220.972 57.1803 220.892 56.9411L208.016 22.9956C207.856 22.5172 207.079 22.5172 206.92 22.9956L194.043 56.9411C193.883 57.1803 193.644 57.3398 193.405 57.3398H193.425Z" fill="black"/>
<path d="M269.85 56.3826L257.85 41.0742C264.647 39.8184 268.594 35.2339 268.594 28.1976C268.594 20.1448 263.392 14.7031 254.063 14.7031H237.319C236.841 14.7031 236.442 15.1018 236.442 15.5802C236.442 18.7295 238.974 21.261 242.123 21.261H253.405C259.006 21.261 261.697 24.1114 261.697 28.2973C261.697 32.4832 259.086 35.3336 253.405 35.3336H237.459C236.981 35.3336 236.582 35.7322 236.582 36.2106V56.7414C236.582 57.0603 236.821 57.3792 237.22 57.3792H242.901C243.22 57.3792 243.538 57.14 243.538 56.7414V41.5127H250.096L260.521 55.0869C261.617 56.5819 263.372 57.3792 265.265 57.3792H269.611C269.929 57.3792 270.169 56.8211 269.85 56.4224V56.3826Z" fill="black"/>
<path d="M175.43 14.7031H148.979C148.501 14.7031 148.182 15.022 148.182 15.5004C148.182 18.6498 150.793 21.261 153.942 21.261H175.41C175.729 21.261 176.048 21.0218 176.048 20.6232V15.2612C175.968 14.9423 175.729 14.7031 175.41 14.7031H175.43ZM175.43 50.7815H155.696C155.377 50.7815 155.058 50.5423 155.058 50.1436V39.4796C155.058 39.1607 155.298 38.8417 155.696 38.8417H173.935C174.254 38.8417 174.573 38.6025 174.573 38.2039V32.842C174.573 32.523 174.333 32.2041 173.935 32.2041H149.059C148.58 32.2041 148.182 32.6028 148.182 33.0812V56.3626C148.182 56.841 148.58 57.2397 149.059 57.2397H175.43C175.749 57.2397 176.068 57.0005 176.068 56.6018V51.2399C175.988 51.0007 175.749 50.7615 175.43 50.7615V50.7815Z" fill="black"/>
<path d="M56.9869 4.1184L42.1369 26.1441C41.1204 27.6391 43.0937 29.453 44.5089 28.1972L59.1197 15.4801C59.5183 15.1612 60.0764 15.4004 60.0764 15.9585V55.6646C60.0764 56.2227 59.3589 56.4619 59.0399 56.0632L14.829 3.16163C13.4138 1.42748 11.3607 0.470703 9.06844 0.470703H7.49375C3.3876 0.470703 -0.000976562 3.85928 -0.000976562 8.04516V63.9367C-0.000976562 68.1226 3.3876 71.5111 7.57348 71.5111C10.1847 71.5111 12.6364 70.1756 14.0516 67.8834L28.9016 45.8576C29.9181 44.3627 27.9448 42.5488 26.5296 43.8046L11.9188 56.442C11.5202 56.7609 10.9621 56.5217 10.9621 55.9636V16.3372C10.9621 15.7791 11.6796 15.5399 11.9786 15.9385L56.1895 68.8401C57.6048 70.5743 59.7376 71.5311 61.9501 71.5311H63.5248C67.7107 71.5311 71.0993 68.1425 71.0993 63.9566V8.06509C71.0195 3.87921 67.631 0.490636 63.4451 0.490636C60.8339 0.490636 58.3821 1.82613 56.9669 4.1184H56.9869Z" fill="black"/>
</svg>
